<svg xmlns="http://www.w3.org/2000/svg" xmlns:xlink="http://www.w3.org/1999/xlink" width="200" zoomAndPan="magnify" viewBox="0 0 150 149.999998" height="200" preserveAspectRatio="xMidYMid meet" version="1.0"><defs><clipPath id="765d0bf08e"><path d="M 0.582031 0.582031 L 149.417969 0.582031 L 149.417969 149.417969 L 0.582031 149.417969 Z M 0.582031 0.582031 " clip-rule="nonzero"/></clipPath><clipPath id="47dfbb574e"><path d="M 75 0.582031 C 33.898438 0.582031 0.582031 33.898438 0.582031 75 C 0.582031 116.101562 33.898438 149.417969 75 149.417969 C 116.101562 149.417969 149.417969 116.101562 149.417969 75 C 149.417969 33.898438 116.101562 0.582031 75 0.582031 Z M 75 0.582031 " clip-rule="nonzero"/></clipPath><clipPath id="e536c3e578"><path d="M 27.828125 22.160156 L 122.328125 22.160156 L 122.328125 117 L 27.828125 117 Z M 27.828125 22.160156 " clip-rule="nonzero"/></clipPath><clipPath id="bc3f203385"><path d="M 59 80 L 91 80 L 91 127.910156 L 59 127.910156 Z M 59 80 " clip-rule="nonzero"/></clipPath></defs><g clip-path="url(#765d0bf08e)"><g clip-path="url(#47dfbb574e)"><path fill="#04b19c" d="M 0.582031 0.582031 L 149.417969 0.582031 L 149.417969 149.417969 L 0.582031 149.417969 Z M 0.582031 0.582031 " fill-opacity="1" fill-rule="nonzero"/></g></g><g clip-path="url(#e536c3e578)"><path fill="#ffffff" d="M 83.957031 22.183594 L 64.726562 22.183594 L 27.828125 116.15625 L 49.445312 116.15625 L 74.546875 47.019531 L 99.941406 116.15625 L 122.039062 116.15625 Z M 83.957031 22.183594 " fill-opacity="1" fill-rule="nonzero"/></g><g clip-path="url(#bc3f203385)"><path fill="#ffffff" d="M 59.640625 127.832031 L 75.125 80.375 L 90.394531 127.890625 L 75.398438 119.835938 Z M 59.640625 127.832031 " fill-opacity="1" fill-rule="nonzero"/></g></svg>